<svg width="609" height="1015" viewBox="0 0 609 1015" fill="none" xmlns="http://www.w3.org/2000/svg">
<g filter="url(#filter0_bf_1601_1393)">
<path d="M436.247 472.354L270 576.398L432.174 678.59L596.2 577.879L436.247 472.354Z" fill="url(#paint0_linear_1601_1393)"/>
<path d="M270 785.225V576.398L432.174 678.59V889.269L270 785.225Z" fill="#8F67DF"/>
<path d="M596.2 785.966V577.879L432.174 678.59V889.269L596.2 785.966Z" fill="url(#paint1_linear_1601_1393)"/>
</g>
<g filter="url(#filter1_bf_1601_1393)">
<path d="M224.247 592.718L58 696.762L220.174 798.954L384.2 698.243L224.247 592.718Z" fill="url(#paint2_linear_1601_1393)"/>
<path d="M58 905.589V696.762L220.174 798.954V1009.63L58 905.589Z" fill="#8F67DF"/>
<path d="M384.2 906.329V698.243L220.174 798.954V1009.63L384.2 906.329Z" fill="url(#paint3_linear_1601_1393)"/>
</g>
<g filter="url(#filter2_bf_1601_1393)">
<path d="M443.18 217L276.933 321.043L439.107 423.235L603.133 322.524L443.18 217Z" fill="url(#paint4_linear_1601_1393)"/>
<path d="M276.933 529.871V321.043L439.107 423.236V633.914L276.933 529.871Z" fill="#8F67DF"/>
<path d="M603.132 530.611V322.524L439.106 423.235V633.914L603.132 530.611Z" fill="url(#paint5_linear_1601_1393)"/>
</g>
<g filter="url(#filter3_bf_1601_1393)">
<path d="M175.247 9L9 113.043L171.174 215.235L335.2 114.524L175.247 9Z" fill="url(#paint6_linear_1601_1393)"/>
<path d="M9 321.871V113.043L171.174 215.236V425.914L9 321.871Z" fill="#8F67DF"/>
<path d="M335.2 322.611V114.524L171.174 215.235V425.914L335.2 322.611Z" fill="url(#paint7_linear_1601_1393)"/>
</g>
<defs>
<filter id="filter0_bf_1601_1393" x="265" y="467.354" width="336.2" height="426.914" filterUnits="userSpaceOnUse" color-interpolation-filters="sRGB">
<feFlood flood-opacity="0" result="BackgroundImageFix"/>
<feGaussianBlur in="BackgroundImageFix" stdDeviation="2.25"/>
<feComposite in2="SourceAlpha" operator="in" result="effect1_backgroundBlur_1601_1393"/>
<feBlend mode="normal" in="SourceGraphic" in2="effect1_backgroundBlur_1601_1393" result="shape"/>
<feGaussianBlur stdDeviation="2.5" result="effect2_foregroundBlur_1601_1393"/>
</filter>
<filter id="filter1_bf_1601_1393" x="53" y="587.718" width="336.2" height="426.914" filterUnits="userSpaceOnUse" color-interpolation-filters="sRGB">
<feFlood flood-opacity="0" result="BackgroundImageFix"/>
<feGaussianBlur in="BackgroundImageFix" stdDeviation="2.25"/>
<feComposite in2="SourceAlpha" operator="in" result="effect1_backgroundBlur_1601_1393"/>
<feBlend mode="normal" in="SourceGraphic" in2="effect1_backgroundBlur_1601_1393" result="shape"/>
<feGaussianBlur stdDeviation="2.5" result="effect2_foregroundBlur_1601_1393"/>
</filter>
<filter id="filter2_bf_1601_1393" x="271.333" y="211.4" width="337.4" height="428.114" filterUnits="userSpaceOnUse" color-interpolation-filters="sRGB">
<feFlood flood-opacity="0" result="BackgroundImageFix"/>
<feGaussianBlur in="BackgroundImageFix" stdDeviation="2.8"/>
<feComposite in2="SourceAlpha" operator="in" result="effect1_backgroundBlur_1601_1393"/>
<feBlend mode="normal" in="SourceGraphic" in2="effect1_backgroundBlur_1601_1393" result="shape"/>
<feGaussianBlur stdDeviation="2.5" result="effect2_foregroundBlur_1601_1393"/>
</filter>
<filter id="filter3_bf_1601_1393" x="0" y="0" width="344.2" height="434.914" filterUnits="userSpaceOnUse" color-interpolation-filters="sRGB">
<feFlood flood-opacity="0" result="BackgroundImageFix"/>
<feGaussianBlur in="BackgroundImageFix" stdDeviation="2.8"/>
<feComposite in2="SourceAlpha" operator="in" result="effect1_backgroundBlur_1601_1393"/>
<feBlend mode="normal" in="SourceGraphic" in2="effect1_backgroundBlur_1601_1393" result="shape"/>
<feGaussianBlur stdDeviation="4.5" result="effect2_foregroundBlur_1601_1393"/>
</filter>
<linearGradient id="paint0_linear_1601_1393" x1="453.279" y1="490.868" x2="549.547" y2="618.237" gradientUnits="userSpaceOnUse">
<stop stop-color="#DA77E2"/>
<stop offset="1" stop-color="#906FE8"/>
</linearGradient>
<linearGradient id="paint1_linear_1601_1393" x1="514.372" y1="678.96" x2="514.187" y2="889.269" gradientUnits="userSpaceOnUse">
<stop offset="0.11" stop-color="#AE71E8"/>
<stop offset="0.73" stop-color="#7052AF"/>
</linearGradient>
<linearGradient id="paint2_linear_1601_1393" x1="241.279" y1="611.231" x2="337.547" y2="738.601" gradientUnits="userSpaceOnUse">
<stop stop-color="#DA77E2"/>
<stop offset="1" stop-color="#906FE8"/>
</linearGradient>
<linearGradient id="paint3_linear_1601_1393" x1="302.372" y1="799.324" x2="302.187" y2="1009.63" gradientUnits="userSpaceOnUse">
<stop offset="0.11" stop-color="#AE71E8"/>
<stop offset="0.73" stop-color="#7052AF"/>
</linearGradient>
<linearGradient id="paint4_linear_1601_1393" x1="460.212" y1="235.513" x2="556.48" y2="362.883" gradientUnits="userSpaceOnUse">
<stop stop-color="#DA77E2"/>
<stop offset="1" stop-color="#906FE8"/>
</linearGradient>
<linearGradient id="paint5_linear_1601_1393" x1="521.304" y1="423.606" x2="521.119" y2="633.914" gradientUnits="userSpaceOnUse">
<stop offset="0.11" stop-color="#AE71E8"/>
<stop offset="0.73" stop-color="#7052AF"/>
</linearGradient>
<linearGradient id="paint6_linear_1601_1393" x1="192.279" y1="27.5131" x2="288.547" y2="154.883" gradientUnits="userSpaceOnUse">
<stop stop-color="#DA77E2"/>
<stop offset="1" stop-color="#906FE8"/>
</linearGradient>
<linearGradient id="paint7_linear_1601_1393" x1="253.372" y1="215.606" x2="253.187" y2="425.914" gradientUnits="userSpaceOnUse">
<stop offset="0.11" stop-color="#AE71E8"/>
<stop offset="0.73" stop-color="#7052AF"/>
</linearGradient>
</defs>
</svg>
